<svg width="28" height="16" viewBox="0 0 28 16" fill="none" xmlns="http://www.w3.org/2000/svg">
<path d="M26.6817 4.84985C27.7033 3.92108 27.7786 2.33996 26.8498 1.31832C25.9211 0.296674 24.34 0.221383 23.3183 1.15015L26.6817 4.84985ZM14 13L12.3183 14.8499C13.2719 15.7167 14.7281 15.7167 15.6817 14.8499L14 13ZM4.68168 1.15015C3.66004 0.221383 2.07892 0.296674 1.15015 1.31832C0.221383 2.33996 0.296674 3.92108 1.31832 4.84985L4.68168 1.15015ZM23.3183 1.15015L12.3183 11.1502L15.6817 14.8499L26.6817 4.84985L23.3183 1.15015ZM15.6817 11.1502L4.68168 1.15015L1.31832 4.84985L12.3183 14.8499L15.6817 11.1502Z" fill="#11414B"/>
</svg>
