<svg width="18" height="22" viewBox="0 0 18 22" fill="none" xmlns="http://www.w3.org/2000/svg">
<path fill-rule="evenodd" clip-rule="evenodd" d="M10.0192 21.6077C12.3755 19.9017 18 15.2418 18 9.63146C18 4.31215 13.9706 0 9 0C4.02944 0 0 4.31215 0 9.63146C0 15.2418 5.62446 19.9017 7.98075 21.6077C8.59564 22.0529 9.40436 22.0529 10.0192 21.6077ZM9.00006 12.673C10.5697 12.673 11.8422 11.3113 11.8422 9.63149C11.8422 7.95171 10.5697 6.58998 9.00006 6.58998C7.43041 6.58998 6.15796 7.95171 6.15796 9.63149C6.15796 11.3113 7.43041 12.673 9.00006 12.673Z" fill="white"/>
</svg>
