<svg width="12" height="7" viewBox="0 0 12 7" fill="none" xmlns="http://www.w3.org/2000/svg">
<mask id="path-1-inside-1_1_20" fill="white">
<path d="M0 1.00051L6 7L12 1.00051L11.0001 4.76837e-07L6 5.0004L0.999882 4.76837e-07L0 1.00051Z"/>
</mask>
<path d="M0 1.00051L6 7L12 1.00051L11.0001 4.76837e-07L6 5.0004L0.999882 4.76837e-07L0 1.00051Z" fill="white"/>
<path d="M0 1.00051L-2.12198 -1.12015L-4.24207 1.00126L-2.12123 3.12192L0 1.00051ZM6 7L3.87877 9.12141L6 11.2425L8.12123 9.12141L6 7ZM12 1.00051L14.1212 3.12192L16.2421 1.00126L14.122 -1.12015L12 1.00051ZM11.0001 4.76837e-07L13.1221 -2.12066L11.0007 -4.24336L8.87874 -2.12126L11.0001 4.76837e-07ZM6 5.0004L3.87862 7.12166L6 9.24317L8.12138 7.12166L6 5.0004ZM0.999882 4.76837e-07L3.12126 -2.12126L0.999282 -4.24336L-1.1221 -2.12066L0.999882 4.76837e-07ZM-2.12123 3.12192L3.87877 9.12141L8.12123 4.87859L2.12123 -1.1209L-2.12123 3.12192ZM8.12123 9.12141L14.1212 3.12192L9.87877 -1.1209L3.87877 4.87859L8.12123 9.12141ZM14.122 -1.12015L13.1221 -2.12066L8.87814 2.12066L9.87802 3.12116L14.122 -1.12015ZM8.87874 -2.12126L3.87862 2.87914L8.12138 7.12166L13.1215 2.12126L8.87874 -2.12126ZM8.12138 2.87914L3.12126 -2.12126L-1.1215 2.12126L3.87862 7.12166L8.12138 2.87914ZM-1.1221 -2.12066L-2.12198 -1.12015L2.12198 3.12117L3.12186 2.12066L-1.1221 -2.12066Z" fill="white" mask="url(#path-1-inside-1_1_20)"/>
</svg>
