<?xml version="1.0" encoding="utf-8"?>
<!-- Generator: Adobe Illustrator 26.1.0, SVG Export Plug-In . SVG Version: 6.00 Build 0)  -->
<svg version="1.1" id="Слой_1" xmlns="http://www.w3.org/2000/svg" xmlns:xlink="http://www.w3.org/1999/xlink" x="0px" y="0px"
	 viewBox="0 0 12 7" style="enable-background:new 0 0 12 7;" xml:space="preserve">
<style type="text/css">
	.st0{fill:#FFFFFF;}
	.st1{fill:#FFFFFF;filter:url(#Adobe_OpacityMaskFilter);}
	.st2{mask:url(#path-1-inside-1_1_20_00000005961371965796337000000012705673450214440075_);fill:#FFFFFF;}
</style>
<path class="st0" d="M12,6L6,0L0,6l1,1l5-5l5,5L12,6z"/>
<defs>
	<filter id="Adobe_OpacityMaskFilter" filterUnits="userSpaceOnUse" x="-4.2" y="-4.2" width="20.5" height="15.5">
		<feColorMatrix  type="matrix" values="1 0 0 0 0  0 1 0 0 0  0 0 1 0 0  0 0 0 1 0"/>
	</filter>
</defs>
<mask maskUnits="userSpaceOnUse" x="-4.2" y="-4.2" width="20.5" height="15.5" id="path-1-inside-1_1_20_00000005961371965796337000000012705673450214440075_">
	<path class="st1" d="M12,6L6,0L0,6l1,1l5-5l5,5L12,6z"/>
</mask>
<path class="st2" d="M12,6l2.1,2.1L16.2,6l-2.1-2.1L12,6z M6,0l2.1-2.1L6-4.2L3.9-2.1L6,0z M0,6l-2.1-2.1L-4.2,6l2.1,2.1L0,6z M1,7
	l-2.1,2.1L1,11.2l2.1-2.1L1,7z M6,2l2.1-2.1L6-2.2L3.9-0.1L6,2z M11,7L8.9,9.1l2.1,2.1l2.1-2.1L11,7z M14.1,3.9l-6-6L3.9,2.1l6,6
	L14.1,3.9z M3.9-2.1l-6,6l4.2,4.2l6-6L3.9-2.1z M-2.1,8.1l1,1l4.2-4.2l-1-1L-2.1,8.1z M3.1,9.1l5-5L3.9-0.1l-5,5L3.1,9.1z M3.9,4.1
	l5,5l4.2-4.2l-5-5L3.9,4.1z M13.1,9.1l1-1L9.9,3.9l-1,1L13.1,9.1z"/>
</svg>
